<svg xmlns="http://www.w3.org/2000/svg" width="100" height="38" fill="none" class="svg-icon"><g fill-rule="evenodd"><path fill="#E7EFFF" stroke="#0454F2" stroke-width="1.086" d="m16.288 6.374-.016-.039-.022-.036c-.254-.415-.235-.692-.111-.912.152-.272.538-.592 1.304-.89 1.517-.588 4.162-.949 7.95-.949h.002c9.738 0 19.475 0 29.215-.002 3.602.327 6.572 1.953 9.433 3.96-.071.053-.14.11-.207.17l-.044.04-.008.01c-.514.497-.835 1.311-1.037 2.055-.158.584-.26 1.19-.314 1.707l-42.972.093c-.636.002-1.125-.284-1.291-.685l-1.882-4.522ZM10.145 11.584h-4.57l.006-.022.008-.029.002-.008.002-.008c.405-1.746.991-3.999 1.899-5.616H8.64l1.504 5.683Z"/><path fill="#0454F2" d="M12.692 31.735c-4.797 0-11.875-4.02-12.18-4.194L0 27.249v-6.277l.32-.296c.462-.429 1.416-1.562 1.416-2.334l.09-1.651c.065-1.14.14-2.454.18-3.63.025-.701 1-1.893 2.131-2.5.492-1.941 1.34-4.598 2.036-6.084l.265-.549c.078-.157.135-.254.16-.341a3.675 3.675 0 0 1-.067-.316l-.29-1.738.977-.195C11.385.502 19.732 0 25.393 0H54.73c6.079.5 9.75 3.3 13.634 6.265 1.791 1.366 3.643 2.779 5.826 4.055.96.085 2.349.134 3.97.193 9.724.349 18.53.999 19.505 5.069l.907 4.627c.58.37 1.429 1.107 1.429 2.24v5.815c0 .867-.112 1.736-.914 2.233-1.54.913-3.34 1.236-6.9 1.236h-1.79v-2.004h1.79c3.05 0 4.554-.231 5.685-.879-.03-.02.003-.202.003-.586v-5.815c0-.273-.505-.615-.707-.702l-.497-.216-1.087-5.547c-.687-2.866-12.045-3.273-17.504-3.471-1.821-.064-3.36-.12-4.354-.224l-.438-.141c-2.396-1.378-4.36-2.876-6.26-4.329-3.786-2.885-7.051-5.377-12.39-5.82l-29.244.005c-5.126 0-12.466.412-16.736 1.112.12.7.067.932-.292 1.658l-.248.516c-.694 1.479-1.591 4.361-2.023 6.186l-.128.54-.552.184c-.615.207-1.23.937-1.33 1.151.006.963-.072 2.296-.137 3.448l-.087 1.59c.002 1.399-1.147 2.784-1.734 3.4v4.32c1.694.911 7.138 3.65 10.75 3.622l2.591-.002v2.004h-2.56l-.215.002Zm18.053-.002h44.374v-2.004H30.745v2.004Z" clip-rule="evenodd"/><path fill="#0454F2" d="m89.871 16.06 2.959 5c.969-.523 2.395-.86 3.497-.86h.073l1.091.007-.707-3.601-6.913-.546ZM49.158 15.177h4.902V13.84h-4.902v1.336ZM29.913 14.508h4.902v-1.335h-4.902v1.335ZM2.803 18.26h.937c2.161 0 5.022-1.54 5.109-3.305v-1.623H3.06c-.062 1.708-.195 3.653-.257 4.927ZM64.95 8.787l-.017.019c-.595.54-.91 2.546-.937 3.314a.917.917 0 0 0 .29.713c.202.198.454.3.747.3h2.348c2.511 0-.427-4.261-1.364-4.57a1.073 1.073 0 0 0-1.067.224ZM36.626 25.245v1.71h33.308l-33.308-1.71ZM17.296 35.981c-1.366-1.095-2.378-2.569-2.858-4.248h-1.594v-3.938c0-2.659 1.154-5.08 3.013-6.832 1.859-1.752 4.427-2.84 7.25-2.84 2.819 0 5.387 1.088 7.246 2.842l.002-.002c1.859 1.752 3.013 4.17 3.013 6.832v3.938h-1.594c-.477 1.68-1.494 3.153-2.855 4.248A9.277 9.277 0 0 1 23.107 38a9.277 9.277 0 0 1-5.81-2.019Zm65.46-12.09c-3.308 0-5.988 2.526-5.988 5.645 0 3.12 2.68 5.647 5.988 5.647 3.308 0 5.989-2.527 5.989-5.648 0-3.118-2.681-5.645-5.989-5.645Zm-59.649 0c-3.307 0-5.99 2.526-5.99 5.645 0 3.12 2.683 5.647 5.99 5.647 3.308 0 5.99-2.527 5.99-5.648 0-3.118-2.682-5.645-5.99-5.645Zm59.65-5.768c2.82 0 5.386 1.088 7.247 2.842l.002-.002c1.86 1.752 3.013 4.17 3.013 6.832v3.938h-1.596c-.477 1.68-1.492 3.153-2.856 4.248A9.277 9.277 0 0 1 82.757 38a9.267 9.267 0 0 1-5.81-2.016l-.002.002c-1.364-1.095-2.378-2.572-2.858-4.253h-1.594v-3.938c0-2.661 1.154-5.08 3.013-6.832 1.859-1.752 4.427-2.84 7.25-2.84Z" clip-rule="evenodd"/><path fill="#0454F2" d="M82.756 27.34c-1.287 0-2.328.985-2.328 2.198s1.041 2.195 2.328 2.195 2.329-.982 2.329-2.195c0-1.213-1.042-2.197-2.329-2.197ZM23.107 27.34c-1.286 0-2.328.985-2.328 2.198s1.042 2.195 2.328 2.195c1.287 0 2.329-.982 2.329-2.195 0-1.213-1.042-2.197-2.329-2.197Z" clip-rule="evenodd"/></g></svg>